<?xml version="1.0" encoding="utf-8"?>
<!-- Generator: Adobe Illustrator 23.0.6, SVG Export Plug-In . SVG Version: 6.00 Build 0)  -->
<svg version="1.1" id="Ebene_1" xmlns="http://www.w3.org/2000/svg" xmlns:xlink="http://www.w3.org/1999/xlink" x="0px" y="0px"
	 viewBox="0 0 141.73 34.02" style="enable-background:new 0 0 141.73 34.02;" xml:space="preserve">
<style type="text/css">
	.st0{fill:#FFDD00;}
	.st1{fill:#53AE5A;}
</style>
<g id="egFMEW.tif">
	<g>
		<path d="M43.53,30.71c-0.34-0.21-0.66-0.48-1.03-0.63c-0.35-0.14-1.19-0.7-1.46-0.49c-0.24,0.19-0.07,1.02-0.16,1.31
			c-0.18,0.57-0.17,0.94-0.39,1.5c-0.08,0.22-0.39,0.42-0.63,0.47c-0.11,0.02-0.41-0.31-0.44-0.51c-0.06-0.5-0.02-1.02-0.01-1.53
			c0.02-0.73-0.27-0.98-0.86-0.57c-0.91,0.62-1.63,1.44-2.46,1.76c-0.9,0.22-1.22-0.3-0.42-1.17c0.52-0.57,1.15-1.04,1.67-1.6
			c0.17-0.19,0.28-0.55,0.23-0.8c-0.16-0.83-0.53-1.64-0.57-2.47c-0.06-1.2,0.08-2.41,0.15-3.71c-1.13-0.33-2.45-0.7-3.76-1.09
			c-1.05-0.31-1.69-1.11-2.1-2.03c-0.16-0.35-0.03-1.02,0.23-1.34c1.22-1.47,2.51-2.88,3.8-4.29c0.78-0.86,1.6-1.69,2.46-2.6
			c-4.48-1.08-8.88-0.65-13.23-0.78c-3.3-0.1-6.5-0.79-9.77-0.97c-2.69-0.15-5.4-0.11-8.1-0.11c-1.29,0-2.43-0.26-3.27-1.34
			C3.02,7.24,3.07,6.84,3.57,6.48c1.1-0.79,2.33-1.26,3.67-1.36C11,4.84,14.68,5.56,18.38,6.07c1.48,0.2,2.98,0.25,4.47,0.37
			c3.75,0.32,7.49,0.6,11.23,0.99c1,0.11,1.98,0.53,2.95,0.88c0.56,0.2,0.86,0.12,1.17-0.41c0.94-1.6,2.16-2.96,3.9-3.67
			c1.07-0.44,2.27-0.57,3.4-0.84c0.22-0.05,0.44-0.11,0.73-0.18c-0.23-0.78-0.25-1.55,0.57-1.92c0.48-0.21,1.19-0.41,1.58-0.2
			c0.69,0.36,0.89,1.15,0.67,2.01c0.74,0.2,1.57,0.23,2.12,0.63c1.29,0.93,2.65,1.88,3.59,3.12c1.34,1.76,1.19,1.96,3.37,2.03
			c2.93,0.09,5.88,0.16,8.8-0.02c2.1-0.13,4.16-0.73,6.25-1.08c2.04-0.34,4.09-0.61,6.13-0.96c1.84-0.32,3.67-0.77,5.52-1.05
			c2.16-0.32,4.33-0.62,6.5-0.73c2.5-0.14,5-0.05,7.51-0.09c0.6-0.01,1.21-0.08,1.8-0.19c1.68-0.31,3.22,0.22,4.82,0.62
			c1.45,0.36,2.97,0.53,4.47,0.61c0.83,0.04,3.97-0.49,4.68-0.43c2.82,0.24,9.22-0.92,9.64-0.96c2.62-0.25,5.02-0.9,7.63-1.26
			c1.98-0.27,3.92-0.85,5.89-1.22c0.43-0.08,1.32-0.61,1.38,0.21c0.25,0.6-0.63,0.74-1.03,0.97c-0.74,0.43-4.54,1.65-5.66,1.89
			c-1.43,0.31-9.48,2.18-13.05,2.58c-1.49,0.17-7.15,1.24-8.92,1.35c-1.54,0.1-3.84,0.23-5.87-0.25c-2.02-0.59-3.98-0.3-5.92,0.39
			c-0.43,0.16-0.67,0.39-0.33,0.82c1.49,1.88,1.22,4.07,1.15,6.24c-0.04,1.4-0.1,2,0.07,3.38c0.1,0.79,0.41,2.08-0.2,2.42
			c-0.68,0.38-1.65,0.09-2.26,0.56c-0.27,0.2-0.55,1.23-0.73,1.56c-0.14,0.26-0.14,0.66-0.49,0.73c-0.52,0.01-0.37-0.41-0.46-0.66
			c-0.15-0.4,0.73-1.63-0.02-1.71c-0.71,0.24-0.75,1.45-0.95,1.96c-0.09,0.23-0.04,0.58-0.46,0.63c-0.45-0.06-0.4-0.49-0.42-0.74
			c-0.04-0.51,0.6-1.97,0.05-1.89c-0.75,0.52-1.47,1.17-1.84,1.6c-0.18,0.2-0.53,0.45-0.66,0.44c-0.48-0.02-0.75-0.52-0.42-1.04
			c0.31-0.48,1.29-1.04,1.71-1.4c0.83-0.7,1.76-1.27,2.63-1.93c0.24-0.18,0.52-0.48,0.56-0.75c0.19-1.61,0.36-3.23,0.43-4.85
			c0.03-0.64-0.18-1.3-0.35-1.93c-0.18-0.67-0.88-1.07-1.54-0.85c-1.2,0.41-1.73,0.7-2.86,1.42c-2.12,1.36-4.32,2.86-6.66,3.77
			c-1.81,0.7-2.13,0.74-4.08,0.99c-1.1,0.14-2.14,0.12-3.61-0.16c0,1.21-1.2,1.46-1.15,2.62c0.01,0.2,0.64,0.75,0.87,0.84
			c1.04,0.41,1.6,1.29,2.11,2.18c0.12,0.22,0.04,0.76-0.15,0.92c-0.45,0.4-0.62-0.09-0.8-0.41c-0.35-0.63-0.74-1.21-1.65-1.4
			c-0.02,1.34,1.17,2.94-0.1,3.13c-1.19-0.49-1.04-1.38-1.23-2.26c-1.13,0.04-0.92,1.78-1.86,2.06c-1.31,0.28-1.37-1.16-0.59-1.74
			c0.34-0.26,0.51-0.78,0.83-1.04c-0.65-2.06,0.14-3.2,0.36-4.98c-1.98,0.79-4.86,0.64-6.12,0.64c0.27,2.42,0.5,4.83,0.84,7.24
			c0.13,0.9-0.04,1.36-0.93,1.58c-1.18,0.3-1.5,0.81-1.36,2.04c0.03,0.27,0.31,0.71-0.2,1.06c-0.43,0.03-0.67-0.28-0.74-0.65
			c-0.05-0.3-0.01-2.29-0.73-1.38c0,0.57-0.17,1.67-0.25,2.01c-0.06,0.24-0.07,0.61-0.45,0.66c-0.41-0.08-0.45-0.3-0.56-0.51
			c-0.12-0.24-0.14-0.54-0.14-0.82c0-0.28,0.21-1.08,0.29-1.65c-1.06-0.12-1.98,0.12-2.78,0.83c-0.21,0.19-0.29,0.79-0.52,1.06
			c-0.22,0.26-0.45,0.27-0.91,0.05c-0.28-0.28-0.39-0.61-0.35-1.02c0.13-1.05,1.75-1.78,3-1.99c0.69-0.12,1.96-0.5,1.98-0.52
			c0.56-0.28,0.63-1.06,0.64-1.39c0.05-2.79-0.43-5.37-2.86-6.89c-0.07-0.05-3.97-1.68-5.69-1.33c-1.8,0.26-3.59,0.9-5.27,1.65
			c-1.36,0.61-2.41,1.83-3.79,2.44c-1.63,0.72-3.14,1.28-4.7,1.5c-0.29,0.04-0.73,0.09-0.83,0.28c-0.76,1.45-1.16,3.04-0.62,4.61
			c0.19,0.55,1.03,0.98,1.66,1.24c0.92,0.37,1.59,0.83,1.78,1.69C43.95,30.33,43.86,30.75,43.53,30.71z M66.4,10.42
			c-4,0-7.85,0-11.69,0c-1.15,0-2.31-0.03-3.46,0.01c-0.42,0.01-0.91-0.02-1.33-0.02c-0.55,0-1.03,0.06-1.58,0.06
			c-2.33-0.02-4.66,0.02-6.99,0.03c-1.19,0-2.26,0.01-3.13,1.19c-1.57,2.14-3.87,3.63-5.41,5.87c-1,1.46-0.42,2.45,0.84,2.78
			c2.07,0.54,4.21,0.82,6.33,1.17c0.52,0.09,1.08,0.12,1.6,0.04c2.21-0.34,4.16-1.31,5.96-2.58c1.16-0.82,2.22-1.8,3.45-2.5
			c1.43-0.82,3.32-1.86,4.37-3.16c0.48-0.5,1.87-1.42-0.32-1.06c-0.4,0.07-0.05-0.66,0.43-0.72c0.88-0.1,1.42,0.04,2.3-0.05
			c0.34-0.03,1.02-0.24,1.36-0.21c0.03,0.1,0.04,0.54,0.07,0.65c-2.22-0.12-2.05,0.87-2.96,1.62c-0.92,0.76-1.69,1.7-2.41,2.44
			c1-0.06,2.1-0.17,3.21-0.16c0.82,0.01,1.58,0.12,1.99-0.86c0.12-0.28,0.52-0.44,0.77-0.67c0.2-0.19,0.46-0.39,0.53-0.64
			c0.29-0.96,0.96-1.45,1.87-1.71c0.73-0.21,1.34,0.19,1.24,0.93c-0.08,0.58-0.44,1.12-0.66,1.68c-0.09,0.23-0.28,0.62-0.2,0.7
			c0.76,0.73,0.86,1.5,0.1,2.33c0.75,0.12,1.38,0.13,1.94,0.33c0.56,0.19,1.05,0.57,1.68,0.92c0-0.53,0.02-0.87,0-1.21
			c-0.06-0.74,0.19-0.79,0.91-0.71c1.61,0.19,3.23,0.49,4.85-0.15c0.72-0.29,1.56-0.35,2.35-0.4c1.04-0.07,2.08-0.02,3.13-0.02
			c-0.19-1.46-0.19-1.46-0.79-1.58c-1.04-0.21-1.25-0.51-1.05-1.54c0.05-0.27,0.15-0.54,0.23-0.8c-0.09-0.09-0.15-0.19-0.22-0.2
			c-0.7-0.06-0.81-0.56-0.8-1.11c0.02-0.58,0.97-1.54,1.61-1.47c0.4,0.04,0.95,0.37,1.09,0.72c0.25,0.62,0.61,0.84,1.2,0.91
			c0.4,0.05,0.78,0.18,1.18,0.24c0.63,0.1,0.92,0.45,1.03,1.08c0.16,0.96,0.37,1.92,0.65,2.86c0.07,0.23,0.48,0.49,0.73,0.48
			c0.26,0,0.71-0.3,0.72-0.49c0.05-0.92,0.41-1.52,1.42-1.79c-0.33-0.33-0.68-0.52-0.99-0.77c-0.29-0.24-0.65-0.49-0.76-0.81
			c-0.34-0.94-0.79-1.31-1.81-1.3c-1.49,0.02-1.91-0.31-2.31-1.71c-0.11-0.37-0.31-0.71-0.51-1.14c-1.15,0.13-2.3,0.24-3.43,0.39
			c-0.18,0.02-0.36,0.15-0.5,0.27c-0.62,0.5-1.22,1.04-1.85,1.53c-0.58,0.44-0.61,0.77-0.07,1.3c0.68,0.65,0.69,1.13,0.02,1.84
			c-0.12,0.12-0.27,0.21-0.4,0.31c0.86,1.04,0.76,1.49-0.37,2.1c-0.13,0.07-0.25,0.17-0.39,0.19c-0.54,0.09-1.25,0.4-1.6,0.17
			c-0.35-0.23-0.52-1.02-0.45-1.52c0.09-0.74,0.17-1.34-0.35-2.01c-0.32-0.42-0.56-0.76-1.06-0.61c-0.77,0.23-0.97-0.17-1.1-0.78
			C66.57,10.82,66.45,10.56,66.4,10.42z M96.73,13.13c0.19-0.34,0.31-0.6,0.47-0.83c0.7-1.03,0.55-1.53-0.6-2.05
			c-0.36-0.16-0.71-0.4-0.97-0.69c-0.09-0.1,0.04-0.62,0.17-0.66c0.7-0.23,1.42-0.38,2.14-0.54c1.44-0.32,2.89-0.62,4.39-0.94
			c-0.31-0.78,0.25-1.22,1.09-1.74c-0.51-0.05-0.75-0.11-0.99-0.1c-1.34,0.11-2.7,0.14-4.01,0.41c-0.61,0.12-1.12,0.71-1.67,1.11
			c-0.03,0.02,0.01,0.16,0.02,0.24c0.07,0.7-0.32,0.9-0.94,1.04c-0.55,0.13-1.33,0.39-1.49,0.8c-0.37,0.93-1.09,1.15-1.86,1.26
			c-0.99,0.13-2.19,0.72-2.73-0.8c-0.03-0.1-0.24-0.14-0.37-0.19c-0.94-0.42-1.15-1.15-0.45-1.89c0.54-0.58,0.27-0.76-0.3-0.91
			c-2.03-0.56-3.98-0.38-5.86,0.63c-0.01,0.7,0.24,1.23,0.94,1.45c0.64,0.2,1.3,0.3,1.93,0.52c0.41,0.14,0.78,0.41,1.15,0.64
			c0.26,0.16,0.5,0.49,0.75,0.49c1.1,0,1.33,0.81,1.66,1.58c0.07,0.17,0.13,0.35,0.2,0.51c1.13-0.37,2.18-0.75,3.26-1.04
			C95.16,10.72,95.25,10.78,96.73,13.13z M34.6,9.11c0.02-0.11,0.03-0.22,0.05-0.33c-1.21-0.22-2.41-0.52-3.62-0.65
			c-2.4-0.25-4.81-0.38-7.21-0.61c-2.94-0.29-5.88-0.57-8.81-0.99c-2.87-0.41-5.72-0.46-8.58-0.06C5.69,6.57,5.06,6.9,4.51,7.71
			c1.7,0.16,3.2,0.33,4.7,0.43c2.69,0.18,5.39,0.28,8.09,0.46c2.4,0.16,4.8,0.5,7.2,0.56c2.41,0.06,4.83-0.14,7.24-0.19
			C32.69,8.96,33.65,9.06,34.6,9.11z M45.72,4.61c-0.86,0.3-1.47,0.55-2.1,0.73C42.08,5.79,41,6.86,40.01,8.01
			c-0.19,0.22-0.3,0.66-0.22,0.93c0.05,0.18,0.5,0.33,0.78,0.35c1.03,0.07,2.07,0.11,3.1,0.09c0.21,0,0.51-0.28,0.59-0.49
			c0.4-1.07,0.74-2.17,1.1-3.25C45.44,5.36,45.55,5.08,45.72,4.61z M49.12,4.62c-0.01,0.17-0.05,0.29-0.02,0.39
			c0.37,1.23,0.74,2.45,1.13,3.67c0.05,0.16,0.24,0.39,0.37,0.39c1.21,0,2.43-0.04,3.66-0.06C53.93,6.81,51.15,4.53,49.12,4.62z
			 M47.6,4.55c-0.15,0.06-0.24,0.08-0.31,0.12c-1.53,0.98-1.73,2.63-2.08,4.19c-0.02,0.1,0.35,0.42,0.55,0.42
			c1.03,0.02,2.07-0.01,3.1-0.08c0.19-0.01,0.53-0.3,0.51-0.4C49.07,7.28,48.81,5.71,47.6,4.55z M111.61,8.18
			c-0.23-0.5-0.35-1.12-0.54-1.14c-0.9-0.1-1.81-0.05-2.72-0.05c-0.08,0.48-0.13,0.8-0.2,1.19C109.23,8.18,110.26,8.18,111.61,8.18z
			"/>
		<path class="st0" d="M66.4,10.42c0.05,0.15,0.17,0.41,0.23,0.68c0.13,0.61,0.33,1.01,1.1,0.78c0.49-0.15,0.74,0.2,1.06,0.61
			c0.52,0.68,0.44,1.27,0.35,2.01c-0.06,0.51,0.1,1.3,0.45,1.52c0.35,0.23,1.05-0.08,1.6-0.17c0.14-0.02,0.26-0.12,0.39-0.19
			c1.13-0.61,1.22-1.05,0.37-2.1c0.13-0.1,0.29-0.18,0.4-0.31c0.67-0.7,0.66-1.18-0.02-1.84c-0.55-0.52-0.51-0.85,0.07-1.3
			c0.63-0.49,1.23-1.03,1.85-1.53c0.15-0.12,0.33-0.25,0.5-0.27c1.14-0.14,2.28-0.26,3.43-0.39c0.2,0.43,0.4,0.77,0.51,1.14
			c0.4,1.4,0.82,1.73,2.31,1.71c1.02-0.01,1.46,0.36,1.81,1.3c0.12,0.32,0.47,0.58,0.76,0.81c0.3,0.25,0.66,0.44,0.99,0.77
			c-1.01,0.26-1.37,0.87-1.42,1.79c-0.01,0.19-0.47,0.49-0.72,0.49c-0.25,0-0.66-0.26-0.73-0.48c-0.28-0.93-0.49-1.89-0.65-2.86
			c-0.11-0.63-0.4-0.98-1.03-1.08c-0.4-0.06-0.78-0.2-1.18-0.24c-0.6-0.07-0.96-0.3-1.2-0.91c-0.14-0.34-0.69-0.68-1.09-0.72
			c-0.63-0.06-1.59,0.89-1.61,1.47c-0.02,0.54,0.1,1.04,0.8,1.11c0.07,0.01,0.13,0.11,0.22,0.2c-0.08,0.26-0.18,0.52-0.23,0.8
			c-0.19,1.03,0.01,1.33,1.05,1.54c0.6,0.12,0.6,0.13,0.79,1.58c-1.05,0-2.1-0.05-3.13,0.02c-0.79,0.05-1.63,0.11-2.35,0.4
			c-1.62,0.64-3.24,0.34-4.85,0.15c-0.72-0.09-0.98-0.03-0.91,0.71c0.03,0.34,0,0.68,0,1.21c-0.63-0.35-1.12-0.73-1.68-0.92
			c-0.57-0.19-1.19-0.21-1.94-0.33c0.75-0.84,0.65-1.6-0.1-2.33c-0.08-0.08,0.1-0.47,0.2-0.7c0.22-0.56,0.58-1.1,0.66-1.68
			c0.11-0.74-0.51-1.13-1.24-0.93c-0.91,0.26-1.58,0.75-1.87,1.71C60.25,13.9,60,14.1,59.8,14.29c-0.25,0.24-0.65,0.39-0.77,0.67
			c-0.4,0.98-1.16,0.87-1.99,0.86c-1.1-0.01-2.21,0.11-3.21,0.16c0.72-0.75,1.49-1.69,2.41-2.44c0.91-0.75,0.26-1.78,2.84-1.7
			c-0.03-0.1,0.08-0.46,0.05-0.57c-0.34-0.03-1.34,0.26-1.68,0.29c-0.88,0.09-2.1-0.32-2.42,0.28c-0.23,0.43,0.98-0.01,1.15,0.36
			c0.23,0.51-1.66,1.93-2.02,2.38c-1.04,1.3-1.82,1.56-3.25,2.38c-1.22,0.7-2.68,1.82-3.93,2.5c-1.98,1.08-3.32,1.79-5.4,2.1
			c-0.52,0.08-1.08,0.05-1.6-0.04c-2.12-0.35-4.26-0.63-6.33-1.17c-1.26-0.33-1.84-1.32-0.84-2.78c1.54-2.24,3.83-3.73,5.41-5.87
			c0.87-1.18,1.94-1.19,3.13-1.19c2.33-0.01,4.66-0.04,6.99-0.03c0.55,0,1.03-0.06,1.58-0.06c0.42,0,0.91,0.03,1.33,0.02
			c1.15-0.04,2.3-0.01,3.46-0.01C58.55,10.42,62.4,10.42,66.4,10.42z M49.73,14.84c0.93,0.01,1.31-0.33,1.32-1.17
			c0.01-0.63-0.57-1.2-1.24-1.11c-0.59,0.08-1.13,0.33-1.22,1.02C48.52,14.19,49.13,14.83,49.73,14.84z M37.73,16.18
			c0.64,0.01,1.41-1.04,1.22-1.53c-0.18-0.45-0.33-0.52-0.79-0.71c-0.41-0.18-1.38,0.71-1.33,1.28
			C36.87,15.77,37.07,16.23,37.73,16.18z"/>
		<path class="st0" d="M96.73,13.13c-1.48-2.35-1.58-2.4-4.11-1.71c-1.07,0.3-2.13,0.68-3.26,1.04c-0.06-0.16-0.12-0.34-0.2-0.51
			c-0.32-0.76-0.56-1.58-1.66-1.58c-0.25,0-0.49-0.34-0.75-0.49c-0.38-0.23-0.74-0.5-1.15-0.64c-0.63-0.22-1.29-0.32-1.93-0.52
			c-0.7-0.22-0.96-0.75-0.94-1.45c1.88-1.01,3.83-1.19,5.86-0.63c0.57,0.16,0.84,0.34,0.3,0.91c-0.69,0.74-0.49,1.47,0.45,1.89
			c0.13,0.06,0.34,0.1,0.37,0.19c0.54,1.52,1.75,0.93,2.73,0.8c0.76-0.1,1.48-0.33,1.86-1.26c0.16-0.41,0.94-0.67,1.49-0.8
			c0.62-0.15,1.02-0.34,0.94-1.04c-0.01-0.08-0.05-0.22-0.02-0.24c0.55-0.39,1.06-0.98,1.67-1.11c1.31-0.27,2.67-0.3,4.01-0.41
			c0.24-0.02,0.48,0.04,0.99,0.1c-0.84,0.52-1.4,0.97-1.09,1.74c-1.49,0.32-2.94,0.62-4.39,0.94c-0.72,0.16-1.44,0.31-2.14,0.54
			c-0.13,0.04-0.26,0.56-0.17,0.66c0.26,0.29,0.61,0.52,0.97,0.69c1.14,0.53,1.3,1.03,0.6,2.05C97.04,12.53,96.92,12.79,96.73,13.13
			z"/>
		<path class="st1" d="M34.6,9.11c-0.95-0.05-1.91-0.15-2.86-0.13c-2.41,0.04-4.83,0.25-7.24,0.19c-2.4-0.06-4.8-0.4-7.2-0.56
			c-2.69-0.18-5.39-0.29-8.09-0.46C7.7,8.05,6.2,7.87,4.51,7.71C5.06,6.9,5.69,6.57,6.43,6.47c2.86-0.41,5.71-0.36,8.58,0.06
			c2.92,0.42,5.87,0.7,8.81,0.99c2.4,0.24,4.81,0.36,7.21,0.61c1.22,0.13,2.41,0.43,3.62,0.65C34.63,8.89,34.62,9,34.6,9.11z"/>
		<path class="st1" d="M45.72,4.61c-0.17,0.47-0.27,0.74-0.37,1.02c-0.36,1.09-0.7,2.18-1.1,3.25c-0.08,0.22-0.38,0.49-0.59,0.49
			c-1.03,0.02-2.07-0.02-3.1-0.09c-0.28-0.02-0.72-0.17-0.78-0.35c-0.08-0.27,0.03-0.71,0.22-0.93c1-1.16,2.07-2.23,3.61-2.67
			C44.25,5.16,44.85,4.92,45.72,4.61z"/>
		<path class="st1" d="M49.12,4.62c2.03-0.08,4.81,2.19,5.15,4.38c-1.23,0.03-2.45,0.07-3.66,0.06c-0.13,0-0.32-0.23-0.37-0.39
			c-0.39-1.22-0.76-2.44-1.13-3.67C49.07,4.9,49.11,4.78,49.12,4.62z"/>
		<path class="st1" d="M47.6,4.55c1.21,1.16,1.47,2.73,1.78,4.26c0.02,0.1-0.32,0.38-0.51,0.4c-1.03,0.06-2.07,0.09-3.1,0.08
			c-0.19,0-0.57-0.32-0.55-0.42c0.35-1.56,0.55-3.21,2.08-4.19C47.37,4.63,47.45,4.61,47.6,4.55z"/>
		<path class="st0" d="M111.61,8.18c-1.36,0-2.38,0-3.45,0c0.06-0.38,0.12-0.71,0.2-1.19c0.9,0,1.82-0.06,2.72,0.05
			C111.27,7.06,111.39,7.68,111.61,8.18z"/>
		<path d="M49.73,14.84c-0.6-0.01-1.21-0.65-1.13-1.26c0.09-0.69,0.63-0.94,1.22-1.02c0.67-0.09,1.25,0.48,1.24,1.11
			C51.04,14.51,50.66,14.85,49.73,14.84z"/>
		<path d="M37.73,16.18c-0.65,0.05-0.85-0.41-0.91-0.96c-0.05-0.57,0.69-1.37,1.14-1.38c0.63-0.02,1.06,0.14,1.13,1.09
			C39.12,15.44,38.36,16.18,37.73,16.18z"/>
	</g>
</g>
</svg>
